<svg xmlns="http://www.w3.org/2000/svg" width="1000" height="460" viewBox="0 0 1000 460" role="img" aria-labelledby="title desc">
<title id="title">Burndown — alcance pendiente</title><desc id="desc">Sprint 3. Curva reconstruida de estados Jira con HH reestimadas. Fecha prevista 07/10; cierre real 08/10. Incluye reapertura de HU30. No representa horas trabajadas.</desc>
<rect width="1000" height="460" fill="#ffffff"/>
<style>text{font-family:Arial,sans-serif;font-size:16px;fill:#16344a}.title{font-size:22px;font-weight:bold}.small{font-size:14px}</style>
<text x="24" y="33" class="title">Burndown — alcance pendiente</text><text x="24" y="60" class="small">Sprint 3 · 09/09–07/10 previstos · cierre real 08/10/2026</text><line x1="90" y1="355" x2="940" y2="355" stroke="#e4e8eb" /><text x="76" y="361" text-anchor="end">0</text><line x1="90" y1="292.5" x2="940" y2="292.5" stroke="#e4e8eb" /><text x="76" y="298.5" text-anchor="end">10</text><line x1="90" y1="230" x2="940" y2="230" stroke="#e4e8eb" /><text x="76" y="236" text-anchor="end">20</text><line x1="90" y1="167.5" x2="940" y2="167.5" stroke="#e4e8eb" /><text x="76" y="173.5" text-anchor="end">30</text><line x1="90" y1="105" x2="940" y2="105" stroke="#e4e8eb" /><text x="76" y="111" text-anchor="end">40</text><line x1="90" y1="105" x2="90" y2="355" stroke="#7b8c98" /><line x1="90" y1="355" x2="940" y2="355" stroke="#7b8c98" /><line x1="90" y1="355" x2="90" y2="361" stroke="#7b8c98" /><text x="90" y="383" text-anchor="start">09/09</text><line x1="383.56152012063126" y1="355" x2="383.56152012063126" y2="361" stroke="#7b8c98" /><text x="383.56152012063126" y="383" text-anchor="middle">19/09</text><line x1="677.1230402412625" y1="355" x2="677.1230402412625" y2="361" stroke="#7b8c98" /><text x="677.1230402412625" y="383" text-anchor="middle">29/09</text><line x1="940" y1="355" x2="940" y2="361" stroke="#7b8c98" /><text x="940" y="383" text-anchor="end">08/10</text><line x1="911.9722563377675" y1="105" x2="911.9722563377675" y2="355" stroke="#8294a1" stroke-dasharray="4 4"/><text x="903.9722563377675" y="93" text-anchor="end" class="small">Fin previsto 07/10</text><text x="25" y="230" transform="rotate(-90 25 230)" text-anchor="middle">HH</text><text x="515" y="412" text-anchor="middle">Fecha (hora argentina)</text><path d="M90,111.25 L911.9722563377675,355" fill="none" stroke="#a2674d" stroke-width="3" stroke-dasharray="8 5"/><path d="M90.00,111.25 H208.36 V130.00 H262.27 V161.25 H765.42 V192.50 H900.57 V211.25 H910.16 V242.50 H911.89 V273.75 H928.59 V305.00 H928.70 V273.75 H936.88 V298.75 H936.88 V330.00 H940.00 V330.00" fill="none" stroke="#2b708c" stroke-width="3"/><circle cx="90.00" cy="111.25" r="3.5" fill="#2b708c"/><circle cx="208.36" cy="130.00" r="3.5" fill="#2b708c"/><circle cx="262.27" cy="161.25" r="3.5" fill="#2b708c"/><circle cx="765.42" cy="192.50" r="3.5" fill="#2b708c"/><circle cx="900.57" cy="211.25" r="3.5" fill="#2b708c"/><circle cx="910.16" cy="242.50" r="3.5" fill="#2b708c"/><circle cx="911.89" cy="273.75" r="3.5" fill="#2b708c"/><circle cx="928.59" cy="305.00" r="3.5" fill="#2b708c"/><circle cx="928.70" cy="273.75" r="3.5" fill="#2b708c"/><circle cx="936.88" cy="298.75" r="3.5" fill="#2b708c"/><circle cx="936.88" cy="330.00" r="3.5" fill="#2b708c"/><circle cx="940.00" cy="330.00" r="3.5" fill="#2b708c"/><text x="935" y="318" text-anchor="end" font-weight="bold">4 HH pendientes</text><line x1="24" y1="423" x2="51" y2="423" stroke="#2b708c" stroke-width="3"/><text x="61" y="428" class="small">Pendiente real</text><line x1="255" y1="423" x2="282" y2="423" stroke="#a2674d" stroke-width="3" stroke-dasharray="8 5"/><text x="292" y="428" class="small">Referencia ideal (39 → 0)</text><text x="24" y="451" class="small">Reconstruido con datos de Jira. AARI-338 no se considera terminado al volver al backlog.</text>
</svg>
